<svg xmlns="http://www.w3.org/2000/svg" viewBox="0 0 200 400" fill="#D4AF37">
  <ellipse cx="100" cy="58" rx="36" ry="43"/>
  <path d="M64 101 Q64 86 74 86 Q84 70 100 70 Q116 70 126 86 Q136 86 136 101 L136 115 Q136 125 126 130 L126 185 Q126 205 116 215 L116 342 Q116 362 100 362 Q84 362 84 342 L84 215 Q74 205 74 185 L74 130 Q64 125 64 115 Z"/>
  <rect x="82" y="45" width="8" height="12" rx="2" transform="rotate(-15 86 51)"/>
  <rect x="110" y="45" width="8" height="12" rx="2" transform="rotate(15 114 51)"/>
</svg>
