<svg xmlns="http://www.w3.org/2000/svg" viewBox="0 0 200 400" fill="#D4AF37">
  <ellipse cx="100" cy="50" rx="38" ry="42"/>
  <path d="M62 92 Q62 78 72 78 Q82 62 100 62 Q118 62 128 78 Q138 78 138 92 L138 108 Q138 118 128 122 L128 190 Q128 210 118 220 L118 345 Q118 365 100 365 Q82 365 82 345 L82 220 Q72 210 72 190 L72 122 Q62 118 62 108 Z"/>
  <path d="M80 100 Q90 115 100 100" stroke="#D4AF37" stroke-width="2" fill="none"/>
  <path d="M100 100 Q110 115 120 100" stroke="#D4AF37" stroke-width="2" fill="none"/>
</svg>
